HIERARCHY
ROOT root
{
	OFFSET	0	13.1	24.9
	CHANNELS 6  Xposition Yposition Zposition Xrotation Yrotation Zrotation
	JOINT spine_1
	{
		OFFSET	0	9.99999	0
		CHANNELS 3  Xrotation Yrotation Zrotation
		JOINT spine_2
		{
			OFFSET	0	112	-10
			CHANNELS 3  Xrotation Yrotation Zrotation
			JOINT spine_3
			{
				OFFSET	0	206.5	19.3
				CHANNELS 3  Xrotation Yrotation Zrotation
				JOINT spine_4
				{
					OFFSET	0	110.4	14.6
					CHANNELS 3  Xrotation Yrotation Zrotation
					JOINT neck_1
					{
						OFFSET	0	71.8	-50.3
						CHANNELS 3  Xrotation Yrotation Zrotation
						JOINT neck_2
						{
							OFFSET	0	86.2	-25.8
							CHANNELS 3  Xrotation Yrotation Zrotation
							JOINT head_ee
							{
								OFFSET	0	179.8	-8.7
								CHANNELS 3  Xrotation Yrotation Zrotation
								End Site
								{
									OFFSET	1	0	0
								}
							}
						}
					}
					JOINT left_clavicle
					{
						OFFSET	-43.2	22.4	-70.8
						CHANNELS 3  Xrotation Yrotation Zrotation
						JOINT left_shoulder
						{
							OFFSET	-93.9	-5.79999	48.7
							CHANNELS 3  Xrotation Yrotation Zrotation
							JOINT left_elbow
							{
								OFFSET	-291.4	-30.8	15.2
								CHANNELS 3  Xrotation Yrotation Zrotation
								JOINT left_lowarm_twist
								{
									OFFSET	-110.7	-3.89999	13.6
									CHANNELS 3  Xrotation Yrotation Zrotation
									JOINT left_hand
									{
										OFFSET	-110.7	-3.89999	13.6
										CHANNELS 3  Xrotation Yrotation Zrotation
										JOINT left_ee
										{
											OFFSET	-80.8	-5.10001	12.1
											CHANNELS 3  Xrotation Yrotation Zrotation
											End Site
											{
												OFFSET	1	0	0
											}
										}
									}
								}
							}
						}
					}
					JOINT right_clavicle
					{
						OFFSET	43.2	22.4	-70.8
						CHANNELS 3  Xrotation Yrotation Zrotation
						JOINT right_shoulder
						{
							OFFSET	93.9	-5.79999	48.7
							CHANNELS 3  Xrotation Yrotation Zrotation
							JOINT right_elbow
							{
								OFFSET	291.4	-30.8	15.2
								CHANNELS 3  Xrotation Yrotation Zrotation
								JOINT right_lowarm_twist
								{
									OFFSET	110.7	-3.89999	13.6
									CHANNELS 3  Xrotation Yrotation Zrotation
									JOINT right_hand
									{
										OFFSET	110.7	-3.89999	13.6
										CHANNELS 3  Xrotation Yrotation Zrotation
										JOINT right_ee
										{
											OFFSET	80.8	-5.10001	12.1
											CHANNELS 3  Xrotation Yrotation Zrotation
											End Site
											{
												OFFSET	1	0	0
											}
										}
									}
								}
							}
						}
					}
				}
			}
		}
	}
	JOINT left_hip
	{
		OFFSET	-82.8	-127.5	0.300001
		CHANNELS 3  Xrotation Yrotation Zrotation
		JOINT left_knee
		{
			OFFSET	-28.2	-396.7	2.2
			CHANNELS 3  Xrotation Yrotation Zrotation
			JOINT left_ankle
			{
				OFFSET	-11.7	-411.3	35.4
				CHANNELS 3  Xrotation Yrotation Zrotation
				JOINT left_toes
				{
					OFFSET	0	-60	-88.6
					CHANNELS 3  Xrotation Yrotation Zrotation
					JOINT left_foot_ee
					{
						OFFSET	-22.5	-16.5	-42.2
						CHANNELS 3  Xrotation Yrotation Zrotation
						End Site
						{
							OFFSET	1	0	0
						}
					}
				}
			}
		}
	}
	JOINT right_hip
	{
		OFFSET	82.8	-127.5	0.300001
		CHANNELS 3  Xrotation Yrotation Zrotation
		JOINT right_knee
		{
			OFFSET	28.2	-396.7	2.2
			CHANNELS 3  Xrotation Yrotation Zrotation
			JOINT right_ankle
			{
				OFFSET	11.7	-411.3	35.4
				CHANNELS 3  Xrotation Yrotation Zrotation
				JOINT right_toes
				{
					OFFSET	0	-60	-88.6
					CHANNELS 3  Xrotation Yrotation Zrotation
					JOINT right_foot_ee
					{
						OFFSET	22.5	-16.5	-42.2
						CHANNELS 3  Xrotation Yrotation Zrotation
						End Site
						{
							OFFSET	1	0	0
						}
					}
				}
			}
		}
	}
}
MOTION
Frames: 11
Frame Time: 0.02
2672.25 706.203 -1355.59 21.593 70.3799 -21.7871 -4.30531 -0.345727 -0.173131 -4.30536 -0.334009 -0.19478 -4.30421 -0.265248 -0.281327 -4.30419 -0.306349 -0.235906 -9.32171 20.0034 -1.44956 -9.77445 38.6008 3.67978 -0.0 0.0 -0.0 4.70926 10.7164 9.3393 19.5015 -28.3754 53.7888 6.6376 -73.0486 4.91841 36.6047 -0.184544 -4.59382 -0.672382 6.22268 -1.79462 -0.0 0.0 -0.0 6.12538 12.885 -11.3851 -16.5566 13.4917 -60.8027 0.18875 5.34183 -0.00880519 21.9525 -0.24427 2.77649 5.29184 15.0389 -30.3851 0.0 0.0 0.0 -30.2914 -7.87301 14.6483 -2.25032 0.0860919 0.334595 16.4965 27.7564 -2.43898 -1.4046 0.0 0.0 -0.0 0.0 -0.0 27.3163 33.4243 -10.43 -3.50601 -0.128392 -0.52266 15.8147 -19.221 2.24594 7.29853 -0.0 -0.0 0.0 0.0 0.0 
2644.77 702.278 -1356.54 22.933 71.8269 -23.3728 -4.49643 -0.286336 -0.219625 -4.49644 -0.27178 -0.237401 -4.49526 -0.192485 -0.305243 -4.49531 -0.238276 -0.271013 -8.13304 19.8639 -2.13446 -8.33998 38.6533 2.48572 -0.0 0.0 -0.0 4.31947 10.7423 8.66528 18.896 -29.7142 55.3994 6.60224 -72.9635 4.8846 36.0111 -0.158209 -4.52264 -0.602087 6.30908 -1.29827 -0.0 0.0 -0.0 6.22049 13.2324 -11.5669 -16.1839 13.831 -60.6603 0.209424 5.92297 -0.0108343 20.9856 -0.256035 2.65354 5.22957 13.7341 -30.6557 0.0 0.0 0.0 -31.2918 -7.92819 14.083 -2.81743 0.105707 0.419419 14.0463 25.577 -2.06768 -1.47509 0.0 0.0 -0.0 0.0 -0.0 27.0259 33.5141 -10.0493 -6.34917 -0.208861 -0.95153 10.9741 -19.9569 1.59001 6.90206 -0.0 -0.0 0.0 0.0 0.0 
2621.77 701.763 -1355.56 24.5345 72.3423 -25.5337 -4.42789 -0.268632 -0.25869 -4.42789 -0.251626 -0.27526 -4.42659 -0.162742 -0.335557 -4.42668 -0.213695 -0.305644 -6.08687 19.3195 -3.6128 -5.84849 38.4143 0.0511563 -0.0 0.0 -0.0 4.14887 10.7318 8.37056 17.4508 -29.9339 56.7576 6.27552 -72.1352 4.5729 36.2375 -0.168163 -4.54981 -0.686473 6.71609 -1.67312 -0.0 0.0 -0.0 6.33354 13.6031 -11.7859 -15.7411 13.9727 -60.7245 0.218882 6.18842 -0.011832 20.5824 -0.260328 2.60221 5.22233 12.997 -31.0163 0.0 0.0 0.0 -31.1825 -8.13308 14.927 -3.74564 0.135995 0.558651 11.8339 27.177 -1.77168 -1.55957 0.0 0.0 -0.0 0.0 -0.0 26.1315 33.8471 -9.28802 -9.36381 -0.270823 -1.40994 8.80184 -20.9427 1.28909 6.24167 -0.0 -0.0 0.0 0.0 0.0 
2597.26 707.823 -1356.35 27.9725 72.9316 -29.1276 -4.68372 -0.268039 -0.269279 -4.68371 -0.250361 -0.285789 -4.68236 -0.156986 -0.345993 -4.68247 -0.209659 -0.316859 -6.2257 18.7936 -5.38881 -5.93461 38.7197 -1.81944 -0.0 0.0 -0.0 4.13422 10.4341 8.33893 14.9778 -30.3973 57.3379 5.7607 -70.6586 4.08494 36.0654 -0.160584 -4.52916 -0.651345 6.29551 -1.62573 -0.0 0.0 -0.0 6.88249 14.1637 -12.9292 -15.2082 15.6329 -60.1428 0.27447 7.74287 -0.018574 20.1171 -0.264832 2.54296 5.10258 11.9335 -30.6763 0.0 0.0 0.0 -31.032 -7.83873 14.1579 -4.38903 0.155663 0.655433 9.59711 27.9973 -1.45434 -1.88407 0.0 0.0 -0.0 0.0 -0.0 24.3139 33.9982 -8.48791 -12.2011 -0.307037 -1.84374 7.32032 -20.7977 1.07628 6.04329 -0.0 -0.0 0.0 0.0 0.0 
2572.29 710.732 -1362.24 29.7316 72.8605 -31.076 -4.79512 -0.150554 -0.196182 -4.79511 -0.137766 -0.205364 -4.79456 -0.0720046 -0.236578 -4.79462 -0.108464 -0.222238 -6.10788 18.4601 -5.94175 -5.76657 38.485 -2.50447 -0.0 0.0 -0.0 3.7426 10.0666 7.64995 12.6841 -30.8217 57.6906 5.62799 -70.2389 3.95988 36.2829 -0.170175 -4.55526 -0.636827 6.70892 -1.35268 -0.0 0.0 -0.0 7.40956 15.1926 -14.006 -14.3876 16.2744 -59.9488 0.310015 8.73103 -0.0236667 19.7469 -0.268072 2.49578 5.08972 11.2947 -30.9241 0.0 0.0 0.0 -30.7645 -7.83899 13.3111 -6.4121 0.210401 0.961064 7.84118 27.8164 -1.19303 -2.10966 0.0 0.0 -0.0 0.0 -0.0 23.4686 33.7844 -8.71775 -14.9745 -0.321638 -2.26897 6.92243 -21.9654 1.02388 6.03175 -0.0 -0.0 0.0 0.0 0.0 
2549.02 711.381 -1372.18 28.6822 72.7112 -29.46 -4.88566 0.0523183 -0.177376 -4.88564 0.0634991 -0.173688 -4.88582 0.111554 -0.147497 -4.88584 0.0868595 -0.163264 -5.14629 18.5192 -5.61283 -4.6356 38.2678 -2.54254 -0.0 0.0 -0.0 2.73394 9.21767 5.85601 10.4195 -31.2702 58.3629 5.22559 -68.8518 3.58283 35.6131 -0.140965 -4.47477 -0.559564 6.51156 -0.933839 -0.0 0.0 -0.0 8.17928 16.4207 -15.6079 -13.3095 17.3814 -59.7452 0.324839 9.14163 -0.0259695 19.0302 -0.273478 2.4044 5.08644 10.622 -31.2611 0.0 0.0 0.0 -26.4606 -7.35065 11.8279 -16.8311 0.319906 2.55382 9.05792 25.2791 -1.35299 -2.25337 0.0 0.0 -0.0 0.0 -0.0 23.1122 33.0612 -10.1434 -16.7134 -0.32029 -2.53576 5.18948 -22.2037 0.772077 3.30543 -0.0 -0.0 0.0 0.0 0.0 
2522.66 712.219 -1379.9 28.498 71.3788 -29.2865 -5.03559 0.334182 -0.0727097 -5.03565 0.338132 -0.0512972 -5.03608 0.338207 0.050801 -5.03592 0.341985 -0.00325061 -7.15525 18.0224 -5.07285 -7.06336 37.144 -1.28786 -0.0 0.0 -0.0 2.50481 11.2729 5.5777 8.04592 -31.1126 58.5226 4.72135 -66.8272 3.11576 36.5243 -0.180931 -4.58418 -0.585191 6.81262 -0.971687 -0.0 0.0 -0.0 8.96269 16.8251 -17.3042 -12.7412 18.8971 -58.1835 0.388135 10.8837 -0.0369756 19.1846 -0.272409 2.42409 5.11651 10.1655 -31.7419 0.0 0.0 0.0 -26.6285 -7.52801 12.7701 -16.195 0.321539 2.45623 3.56601 28.1141 -0.549782 -1.82618 0.0 0.0 -0.0 0.0 -0.0 21.3798 32.879 -10.7936 -17.6818 -0.316029 -2.68428 3.19613 -22.9694 0.479621 4.4428 -0.0 -0.0 0.0 0.0 0.0 
2499.37 720.685 -1385.43 26.9321 70.0574 -27.7067 -4.99291 0.461821 0.085366 -4.99302 0.455453 0.11458 -4.99222 0.401525 0.243607 -4.99204 0.434959 0.177136 -7.89198 17.8756 -4.18995 -7.96176 36.3166 -0.150996 -0.0 0.0 -0.0 1.87679 11.602 4.53552 5.9365 -31.358 59.5522 3.86045 -62.377 2.33748 37.0276 -0.203757 -4.64436 -0.535398 6.60134 -0.737812 -0.0 0.0 -0.0 9.64891 18.3601 -18.7311 -11.1761 21.0568 -56.4193 0.398586 11.1695 -0.0389747 18.5756 -0.276314 2.3464 5.15796 9.5222 -32.4129 0.0 0.0 0.0 -23.3983 -7.12465 12.449 -21.5408 0.274147 3.2748 0.196924 28.0114 -0.0305772 -1.94352 0.0 0.0 -0.0 0.0 -0.0 20.2583 32.4156 -11.875 -19.1921 -0.304377 -2.9157 1.92796 -22.7079 0.289869 3.66326 -0.0 -0.0 0.0 0.0 0.0 
2475.83 729.246 -1392.88 24.6098 69.0589 -25.2406 -4.9576 0.530566 0.0966578 -4.95775 0.52334 0.130224 -4.95671 0.46197 0.278258 -4.95647 0.500118 0.201806 -7.44517 17.9491 -3.62159 -7.45597 36.0185 0.268488 -0.0 0.0 -0.0 1.0355 12.2106 3.17233 3.14339 -31.4566 60.8846 3.41756 -59.4162 1.95038 37.3074 -0.21667 -4.67771 -0.538361 6.68889 -0.719658 -0.0 0.0 -0.0 10.6741 19.9614 -20.9208 -9.72843 22.7445 -54.5925 0.403795 11.3117 -0.03999 18.2557 -0.278034 2.30558 5.17816 9.22266 -32.7328 0.0 0.0 0.0 -21.4238 -7.60913 11.7675 -24.8594 0.206401 3.77947 -1.92064 27.5926 0.29876 -2.01428 0.0 0.0 -0.0 0.0 -0.0 18.5841 32.2197 -12.4437 -17.7967 -0.315357 -2.70189 1.50744 -21.0915 0.225333 2.84598 -0.0 -0.0 0.0 0.0 0.0 
2460.0 735.585 -1399.1 23.3942 68.0911 -23.7512 -4.93416 0.491286 0.281316 -4.93424 0.47239 0.312008 -4.9316 0.360048 0.436884 -4.93162 0.424526 0.374539 -7.52712 17.9994 -3.06319 -7.56703 35.7315 0.869278 -0.0 0.0 -0.0 0.753227 12.7205 2.75061 1.31874 -31.0554 61.1984 2.72166 -53.4257 1.36981 37.6241 -0.231489 -4.71541 -0.61641 7.49214 -0.882806 -0.0 0.0 -0.0 11.3295 21.1321 -22.3176 -8.73326 25.0882 -55.0155 0.406575 11.3876 -0.0405372 17.5756 -0.280932 2.21877 5.3052 9.30005 -33.7099 0.0 0.0 0.0 -17.4102 -7.91074 11.3023 -29.9692 0.0452434 4.54687 -3.62213 27.5342 0.565047 -2.70057 0.0 0.0 -0.0 0.0 -0.0 15.8745 32.2452 -12.4037 -16.0134 -0.321806 -2.42836 -0.398988 -21.4991 -0.0599975 2.04733 -0.0 -0.0 0.0 0.0 0.0 
2441.11 739.507 -1403.66 21.7465 67.8662 -22.1173 -4.89914 0.518995 0.570218 -4.89908 0.48166 0.602087 -4.89355 0.28428 0.716718 -4.89405 0.393902 0.66283 -6.04923 18.065 -3.22112 -5.84177 35.7987 0.188736 -0.0 0.0 -0.0 0.520878 12.928 2.38677 0.0281552 -30.8111 61.7979 2.30568 -48.7901 1.04578 37.6663 -0.233477 -4.72042 -0.703515 8.55389 -0.989306 -0.0 0.0 -0.0 11.9239 21.9143 -23.6108 -8.32989 26.9698 -54.9319 0.409141 11.4575 -0.0410454 16.9248 -0.282742 2.13566 5.5487 9.47005 -35.5999 0.0 0.0 0.0 -14.8553 -8.09541 10.5642 -32.6631 -0.0671173 4.94495 -4.91502 26.7879 0.765123 -3.24545 0.0 0.0 -0.0 0.0 -0.0 13.8068 32.3078 -12.3695 -11.8913 -0.304128 -1.79629 -0.0766479 -19.0356 -0.0114143 1.74169 -0.0 -0.0 0.0 0.0 0.0 
